<?xml version="1.0" encoding="UTF-8"?>
<svg xmlns="http://www.w3.org/2000/svg" viewBox="0 0 640.2 359.7">
  <defs>
    <style>
      .cls-1 {
        fill: #e8e8e8;
      }
    </style>
  </defs>
  <g id="Layer_2" data-name="Layer 2">
    <rect class="cls-1" x=".5" y=".5" width="639.2" height="358.7"/>
  </g>
  <g id="Layer_3_copy_2" data-name="Layer 3 copy 2">
    <path d="m269.34,245.53c5.95,3.57,19.51,9.51,34.25,9.51,26.64,0,35.21-16.89,34.97-29.97-.24-21.65-19.74-30.92-39.96-30.92h-11.66v-15.7h11.66c15.22,0,34.49-7.85,34.49-26.17,0-12.37-7.85-23.31-27.12-23.31-12.37,0-24.26,5.47-30.92,10.23l-5.71-15.22c8.33-5.95,24.03-11.89,40.68-11.89,30.45,0,44.24,18.08,44.24,36.87,0,16.18-9.75,29.73-28.54,36.63v.48c19.03,3.57,34.25,17.84,34.49,39.49,0,24.74-19.5,46.38-56.38,46.38-17.36,0-32.59-5.47-40.2-10.47l5.71-15.94Z"/>
  </g>
</svg>
